<svg width="210" height="45" viewBox="0 0 210 45" fill="none" xmlns="http://www.w3.org/2000/svg">
<path d="M0.192 45V0.199997H2.368V45H0.192ZM27.2665 45V2.184H10.8185V0.199997H45.8265V2.184H29.3785V45H27.2665ZM82.858 45L62.762 0.199997H65.194L84.586 43.528H83.37L102.762 0.199997H105.066L84.97 45H82.858ZM112.817 45V0.199997H114.993V45H112.817ZM131.38 45V0.199997H149.556C154.249 0.199997 157.94 1.16 160.628 3.08C163.358 5 164.724 7.83733 164.724 11.592C164.724 14.024 164.126 16.072 162.932 17.736C161.78 19.4 160.158 20.6373 158.068 21.448C156.02 22.2587 153.652 22.664 150.964 22.664L152.052 21.64C155.38 21.64 158.153 22.088 160.372 22.984C162.59 23.88 164.276 25.1813 165.428 26.888C166.58 28.5947 167.156 30.7067 167.156 33.224C167.156 36.9787 165.79 39.88 163.06 41.928C160.372 43.976 156.297 45 150.836 45H131.38ZM133.556 43.08H150.964C155.529 43.08 159.006 42.2907 161.396 40.712C163.785 39.0907 164.98 36.5733 164.98 33.16C164.98 29.704 163.785 27.1867 161.396 25.608C159.006 23.9867 155.529 23.176 150.964 23.176H133.172V21.32H149.62C153.716 21.32 156.894 20.5093 159.156 18.888C161.46 17.2667 162.612 14.8773 162.612 11.72C162.612 8.56266 161.46 6.17333 159.156 4.552C156.894 2.93067 153.716 2.12 149.62 2.12H133.556V43.08ZM181.172 21.256H205.876V23.24H181.172V21.256ZM181.556 43.016H209.652V45H179.38V0.199997H208.756V2.184H181.556V43.016Z" fill="white"/>
</svg>
