<?xml version="1.0" encoding="UTF-8"?>
<svg id="_Слой_1" data-name="Слой 1" xmlns="http://www.w3.org/2000/svg" viewBox="0 0 483.29 398.67">
  <defs>
    <style>
      .cls-1 {
        fill: none;
        stroke: #fff;
        stroke-linecap: round;
        stroke-linejoin: round;
        stroke-width: 8px;
      }
    </style>
  </defs>
  <g id="tg">
    <g id="_линии" data-name="линии">
      <line class="cls-1" x1="430.92" y1="95.44" x2="380.37" y2="322.68"/>
      <line class="cls-1" x1="443.21" y1="41.77" x2="437.54" y2="67.27"/>
    </g>
    <g id="_самолет" data-name="самолет">
      <path class="cls-1" d="M5.77,160.69c-2.46-1.22-2.34-2.92,.28-3.77L475.5,4.24c2.62-.85,4.26,.65,3.66,3.33l-76.98,342.91c-.6,2.68-3.09,3.84-5.54,2.58l-197.78-102.34c-2.44-1.26-2.83-3.87-.86-5.79l123.91-120.72c1.97-1.92,1.63-2.38-.77-1.02l-177.9,101.17c-2.39,1.36-6.36,1.47-8.82,.25L5.77,160.69Z"/>
      <polyline class="cls-1" points="138.9 226.84 167.77 394.67 278.58 291.97"/>
      <line class="cls-1" x1="196.69" y1="247.6" x2="168.9" y2="391.26"/>
    </g>
  </g>
</svg>