<?xml version="1.0" encoding="UTF-8"?>
<svg id="_Слой_1" data-name="Слой 1" xmlns="http://www.w3.org/2000/svg" viewBox="0 0 452.65 449.8">
  <defs>
    <style>
      .cls-1 {
        fill: none;
        stroke: rgba(240, 240, 240, 1);
        stroke-linecap: round;
        stroke-linejoin: round;
        stroke-width: 8px;
      }
    </style>
  </defs>
  <g id="_волны" data-name="волны">
    <path class="cls-1" d="M228.25,150.75s64.55-10.28,70.89,73.83"/>
    <path class="cls-1" d="M228.25,186.12s33.99-5.36,37.33,38.46"/>
    <path class="cls-1" d="M228.25,116.27s96.72-15.08,106.22,108.31"/>
    <path class="cls-1" d="M228.25,81.79s129.1-19.88,141.78,142.79"/>
    <path class="cls-1" d="M228.25,45.98s162.69-24.87,178.67,178.6"/>
  </g>
  <g id="_телефон" data-name="телефон">
    <path class="cls-1" d="M51.73,62.73l-15.58-15.05c-3.95-3.82-4.08-10.2-.28-14.18L61.16,7.06c3.8-3.97,10.15-4.1,14.1-.28l102.09,98.69c3.95,3.82,4.03,10.16,.17,14.07l-25.67,26.05c-3.86,3.92-10.25,4-14.21,.17l-52.77-51.01"/>
    <path class="cls-1" d="M320,331l-15.58-15.05c-3.95-3.82-4.08-10.2-.28-14.18l25.29-26.44c3.8-3.97,10.15-4.1,14.1-.28l102.09,98.69c3.95,3.82,4.03,10.16,.17,14.07l-25.67,26.05c-3.86,3.92-10.25,4-14.21,.17l-52.77-51.01"/>
    <path class="cls-1" d="M95.66,26.5s53.49-7.91,58.74,56.79"/>
    <path class="cls-1" d="M364.81,295.65s53.49-7.91,58.74,56.79"/>
    <path class="cls-1" d="M129.1,137.51l-23.71,24.74c-3.81,3.97-3.97,10.62-.36,14.77l167.74,168.32c3.87,3.91,10.18,3.88,14.02-.06l23.28-23.87"/>
    <path class="cls-1" d="M40.05,51.44L5.45,108.55c-1.87,3.08-1.94,6.92-.19,10.07,17.14,30.75,114.54,193.16,326.84,325.67,3.33,2.08,7.58,2,10.84-.17l55.72-37.08"/>
  </g>
</svg>