<?xml version="1.0" encoding="UTF-8"?>
<svg id="_Слой_1" data-name="Слой 1" xmlns="http://www.w3.org/2000/svg" viewBox="0 0 494.44 495.34">
  <defs>
    <style>
      .cls-1, .cls-2 {
        fill: none;
        stroke: rgba(240, 240, 240, 1);
        stroke-linecap: round;
        stroke-miterlimit: 10;
        stroke-width: 8px;
      }

      .cls-2 {
        stroke-dasharray: 0 0 0 0 0 0 0 20 0 20 0 20;
      }
    </style>
  </defs>
  <g id="_круги" data-name="круги">
    <path class="cls-1" d="M87.11,183.12c0,22.95-18.61,41.55-41.56,41.55S4,206.07,4,183.12s18.6-41.56,41.55-41.56,41.56,18.61,41.56,41.56Z"/>
    <circle class="cls-1" cx="183.11" cy="45.56" r="41.56"/>
    <circle class="cls-1" cx="448.89" cy="45.56" r="41.56"/>
    <circle class="cls-1" cx="448.89" cy="314.89" r="41.56"/>
    <path class="cls-1" d="M354.66,183.12c0,22.95-18.6,41.55-41.55,41.55s-41.56-18.6-41.56-41.55,18.61-41.56,41.56-41.56,41.55,18.61,41.55,41.56Z"/>
    <path class="cls-1" d="M354.66,449.78c0,22.95-18.6,41.56-41.55,41.56s-41.08-18.13-41.55-40.67c-.01-.29-.01-.59-.01-.89,0-22.95,18.61-41.55,41.56-41.55s41.55,18.6,41.55,41.55Z"/>
    <path class="cls-1" d="M87.11,449.78c0,.3,0,.6-.01,.89-.47,22.54-18.9,40.67-41.55,40.67s-41.55-18.61-41.55-41.56,18.6-41.55,41.55-41.55,41.56,18.6,41.56,41.55Z"/>
  </g>
  <g id="_перед" data-name="перед">
    <path class="cls-1" d="M313.11,224.67v183.56c-22.95,0-41.56,18.6-41.56,41.55,0,.3,0,.6,.01,.89H87.1c.01-.29,.01-.59,.01-.89,0-22.95-18.61-41.55-41.56-41.55V224.67c22.95,0,41.56-18.6,41.56-41.55h184.44c0,22.95,18.61,41.55,41.56,41.55Z"/>
    <line class="cls-1" x1="342.71" y1="153.96" x2="420.65" y2="76.03"/>
    <line class="cls-1" x1="345.04" y1="423.19" x2="420.65" y2="347.58"/>
    <line class="cls-1" x1="75.67" y1="152.56" x2="152.2" y2="76.03"/>
    <path class="cls-1" d="M224.66,42.52h179.41"/>
    <path class="cls-1" d="M448.89,88.44v183.56"/>
  </g>
  <g id="_зад" data-name="зад">
    <path class="cls-2" d="M223.21,302.69c6.01,22.15-7.07,44.97-29.22,50.98s-44.98-7.07-50.99-29.22c-6.01-22.15,7.08-44.98,29.22-50.99s44.97,7.08,50.98,29.23Z"/>
    <path class="cls-2" d="M181,96.9v165.31"/>
    <path class="cls-2" d="M141.55,355.13l-68.72,68.72"/>
    <path class="cls-2" d="M395.18,313.57H219.83"/>
  </g>
</svg>