<?xml version="1.0" encoding="UTF-8"?>
<svg id="_Слой_1" data-name="Слой 1" xmlns="http://www.w3.org/2000/svg" viewBox="0 0 487.33 487.9">
  <defs>
    <style>
      .cls-1 {
        stroke-miterlimit: 10;
      }

      .cls-1, .cls-2 {
        fill: none;
        stroke: rgba(240, 240, 240, 1);
        stroke-width: 8px;
      }

      .cls-2 {
        stroke-linecap: round;
        stroke-linejoin: round;
      }
    </style>
  </defs>
  <circle class="cls-1" cx="244.27" cy="242.72" r="80.08"/>
  <path class="cls-2" d="M296.22,211.73c6.43,10.76,9.58,23.6,8.23,37.02-3.34,33.23-32.98,57.47-66.21,54.14-33.23-3.34-57.47-32.98-54.14-66.21,3.34-33.23,32.98-57.47,66.21-54.14,10.43,1.05,19.97,4.68,28.06,10.21"/>
  <circle class="cls-1" cx="349.39" cy="57.22" r="53.22"/>
  <path class="cls-2" d="M382,45.03c1.81,4.84,2.57,10.17,2.02,15.67-1.92,19.13-18.98,33.08-38.11,31.16-19.13-1.92-33.08-18.98-31.16-38.11,1.92-19.13,18.98-33.08,38.11-31.16,6,.6,11.5,2.7,16.15,5.88"/>
  <path class="cls-2" d="M421.95,464.53c-5.03-1.21-9.87-3.56-14.11-7.1-14.78-12.3-16.78-34.25-4.48-49.03,12.3-14.78,34.25-16.78,49.03-4.48,14.78,12.3,16.78,34.25,4.48,49.03-3.86,4.64-8.67,8.02-13.91,10.09"/>
  <path class="cls-2" d="M31.01,382.23c3.4-3.9,7.73-7.09,12.83-9.21,17.75-7.39,38.13,1.01,45.52,18.76,7.39,17.75-1.01,38.13-18.76,45.52-17.75,7.39-38.13-1.01-45.52-18.76-2.32-5.57-3.08-11.4-2.49-17.01"/>
  <circle class="cls-1" cx="430.11" cy="430.68" r="53.22"/>
  <circle class="cls-1" cx="57.22" cy="405.15" r="53.22"/>
  <circle class="cls-1" cx="110.44" cy="109.41" r="34.82"/>
  <path class="cls-2" d="M117.71,94.66c8.15,4.01,11.5,13.87,7.49,22.02-4.01,8.15-13.87,11.5-22.02,7.49s-11.5-13.87-7.49-22.02c1.26-2.56,3.1-4.64,5.27-6.18"/>
  <line class="cls-2" x1="135.64" y1="133.44" x2="187.97" y2="185.77"/>
  <line class="cls-2" x1="321.54" y1="102.58" x2="283.6" y2="172.95"/>
  <line class="cls-2" x1="302.57" y1="297.61" x2="393.26" y2="392.3"/>
  <line class="cls-2" x1="180.61" y1="295.2" x2="97.46" y2="370.33"/>
</svg>