<?xml version="1.0" encoding="UTF-8"?>
<svg id="_Слой_1" data-name="Слой 1" xmlns="http://www.w3.org/2000/svg" viewBox="0 0 492.67 441.53">
  <defs>
    <style>
      .cls-1 {
        fill: none;
        stroke: rgba(240, 240, 240, 1);
        stroke-linecap: round;
        stroke-linejoin: round;
        stroke-width: 8px;
      }
    </style>
  </defs>
  <g>
    <path class="cls-1" d="M454.89,122.38V55.75c0-28.58-23.17-51.75-51.75-51.75H55.75C27.17,4,4,27.17,4,55.75v98.23c0,28.58,23.17,51.75,51.75,51.75H403.14c28.58,0,51.75-23.17,51.75-51.75h0s33.78,0,33.78,0l-33.78-31.61Z"/>
    <line class="cls-1" x1="72.49" y1="70.63" x2="256.75" y2="70.63"/>
    <line class="cls-1" x1="303.66" y1="70.63" x2="386.71" y2="70.63"/>
    <line class="cls-1" x1="72.49" y1="133.84" x2="386.71" y2="133.84"/>
  </g>
  <g>
    <path class="cls-1" d="M37.78,354.17v-66.63c0-28.58,23.17-51.75,51.75-51.75H436.92c28.58,0,51.75,23.17,51.75,51.75v98.23c0,28.58-23.17,51.75-51.75,51.75H89.53c-28.58,0-51.75-23.17-51.75-51.75h0s-33.78,0-33.78,0l33.78-31.61Z"/>
    <line class="cls-1" x1="420.18" y1="302.42" x2="235.91" y2="302.42"/>
    <line class="cls-1" x1="189" y1="302.42" x2="105.95" y2="302.42"/>
    <line class="cls-1" x1="420.18" y1="365.64" x2="105.95" y2="365.64"/>
  </g>
</svg>