<?xml version="1.0" encoding="UTF-8"?>
<svg id="_Слой_1" data-name="Слой 1" xmlns="http://www.w3.org/2000/svg" viewBox="0 0 492 492">
  <defs>
    <style>
      .cls-1, .cls-2 {
        stroke: rgba(240, 240, 240, 1);
        stroke-linecap: round;
        stroke-miterlimit: 10;
        stroke-width: 8px;
      }

      .cls-2 {
        fill: none;
      }
    </style>
  </defs>
  <g id="_палки" data-name="палки">
    <line class="cls-1" x1="104.41" y1="353.41" x2="33" y2="415.52"/>
    <line class="cls-1" x1="134.14" y1="218.29" x2="33" y2="205.15"/>
    <line class="cls-1" x1="323.89" y1="295.24" x2="256.05" y2="205.15"/>
    <line class="cls-1" x1="444.46" y1="366.46" x2="368.79" y2="335.52"/>
    <line class="cls-1" x1="212.36" y1="192.3" x2="186.52" y2="207.82"/>
    <line class="cls-1" x1="197.54" y1="346.03" x2="152.76" y2="338.85"/>
    <line class="cls-1" x1="322.27" y1="268.65" x2="246" y2="335.52"/>
    <line class="cls-1" x1="359.63" y1="221.12" x2="441.48" y2="89.53"/>
  </g>
  <g id="_график" data-name="график">
    <line class="cls-1" x1="33" y1="488" x2="33" y2="4"/>
    <line class="cls-1" x1="4" y1="459" x2="488" y2="459"/>
    <line class="cls-1" x1="75.89" y1="459" x2="75.89" y2="483.44"/>
    <line class="cls-1" x1="30.33" y1="415.52" x2="5.89" y2="415.52"/>
    <line class="cls-1" x1="30.33" y1="373.44" x2="5.89" y2="373.44"/>
    <line class="cls-1" x1="30.33" y1="331.37" x2="5.89" y2="331.37"/>
    <line class="cls-1" x1="30.33" y1="289.3" x2="5.89" y2="289.3"/>
    <line class="cls-1" x1="30.33" y1="247.22" x2="5.89" y2="247.22"/>
    <line class="cls-1" x1="30.33" y1="205.15" x2="5.89" y2="205.15"/>
    <line class="cls-1" x1="30.33" y1="163.07" x2="5.89" y2="163.07"/>
    <line class="cls-1" x1="30.33" y1="121" x2="5.89" y2="121"/>
    <line class="cls-1" x1="30.33" y1="78.93" x2="5.89" y2="78.93"/>
    <line class="cls-1" x1="30.33" y1="36.85" x2="5.89" y2="36.85"/>
    <line class="cls-1" x1="117.22" y1="459" x2="117.22" y2="483.44"/>
    <line class="cls-1" x1="158.56" y1="459" x2="158.56" y2="483.44"/>
    <line class="cls-1" x1="199.89" y1="459" x2="199.89" y2="483.44"/>
    <line class="cls-1" x1="241.22" y1="459" x2="241.22" y2="483.44"/>
    <line class="cls-1" x1="282.56" y1="459" x2="282.56" y2="483.44"/>
    <line class="cls-1" x1="323.89" y1="459" x2="323.89" y2="483.44"/>
    <line class="cls-1" x1="365.22" y1="459" x2="365.22" y2="483.44"/>
    <line class="cls-1" x1="406.56" y1="459" x2="406.56" y2="483.44"/>
    <line class="cls-1" x1="447.89" y1="459" x2="447.89" y2="483.44"/>
  </g>
  <g id="_круги" data-name="круги">
    <circle class="cls-2" cx="162.7" cy="219.96" r="14.81"/>
    <circle class="cls-2" cx="236.19" cy="178.89" r="14.81"/>
    <circle class="cls-2" cx="343.04" cy="320.7" r="14.81"/>
    <circle class="cls-2" cx="344.81" cy="246" r="14.81"/>
    <circle class="cls-2" cx="223.15" cy="353.67" r="14.81"/>
    <circle class="cls-2" cx="127.15" cy="331.37" r="14.81"/>
    <circle class="cls-2" cx="473.19" cy="377.59" r="14.81"/>
    <circle class="cls-2" cx="458.7" cy="63.11" r="14.81"/>
  </g>
</svg>