<?xml version="1.0" encoding="UTF-8"?>
<svg id="_Слой_1" data-name="Слой 1" xmlns="http://www.w3.org/2000/svg" viewBox="0 0 491.68 490.05">
  <defs>
    <style>
      .cls-1 {
        stroke-width: 6px;
      }

      .cls-1, .cls-2 {
        stroke-miterlimit: 10;
      }

      .cls-1, .cls-2, .cls-3 {
        fill: none;
        stroke: rgba(240, 240, 240, 1);
      }

      .cls-1, .cls-3 {
        stroke-linecap: round;
      }

      .cls-2, .cls-3 {
        stroke-width: 8px;
      }

      .cls-3 {
        stroke-linejoin: round;
      }
    </style>
  </defs>
  <g id="_комп" data-name="комп">
    <line class="cls-2" x1="176.36" y1="364.84" x2="176.36" y2="422.4"/>
    <path class="cls-2" d="M487.68,17.5V351.33c0,7.46-6.06,13.51-13.51,13.51h-35.12v-90.12c0-9.08-7.36-16.44-16.44-16.44h-103.07c-9.08,0-16.44,7.36-16.44,16.44v90.12H17.51c-7.47,0-13.51-6.06-13.51-13.51V17.5c0-7.46,6.04-13.5,13.51-13.5H474.17c7.46,0,13.51,6.04,13.51,13.5Z"/>
    <path class="cls-3" d="M487.68,316.38h-48.63v-41.66c0-9.08-7.36-16.44-16.44-16.44h-103.07c-9.08,0-16.44,7.36-16.44,16.44v41.66H4"/>
    <path fill="rgba(240, 240, 240, 1)" d="M245.84,330.57c-4.93,0-8.92,4-8.92,8.92s4,8.92,8.92,8.92,8.92-4,8.92-8.92-4-8.92-8.92-8.92h0Z"/>
    <path class="cls-2" d="M303.11,422.4v34.97H133.82c-3.23,0-5.86-2.62-5.86-5.86v-23.25c0-3.23,2.62-5.86,5.86-5.86h169.29Z"/>
  </g>
  <g id="_телефон" data-name="телефон">
    <rect class="cls-2" x="303.11" y="258.29" width="135.94" height="227.76" rx="16.44" ry="16.44"/>
    <g>
      <rect class="cls-2" x="320.75" y="289.37" width="100.65" height="159.67" rx="7.78" ry="7.78"/>
      <path fill="rgba(240, 240, 240, 1)" d="M371.08,458.99c-4.93,0-8.92,4-8.92,8.92s4,8.92,8.92,8.92,8.92-4,8.92-8.92-4-8.92-8.92-8.92h0Z"/>
      <line class="cls-1" x1="387.75" y1="274.39" x2="354.41" y2="274.39"/>
      <path fill="rgba(240, 240, 240, 1)" d="M337.74,270.57c-2.11,0-3.82,1.71-3.82,3.82s1.71,3.82,3.82,3.82,3.82-1.71,3.82-3.82-1.71-3.82-3.82-3.82h0Z"/>
    </g>
  </g>
</svg>