<?xml version="1.0" encoding="UTF-8"?>
<svg id="_Слой_1" data-name="Слой 1" xmlns="http://www.w3.org/2000/svg" viewBox="0 0 434.67 490.59">
  <defs>
    <style>
      .cls-1, .cls-2 {
        fill: none;
        stroke: rgba(240, 240, 240, 1);
        stroke-miterlimit: 10;
        stroke-width: 8px;
      }

      .cls-2 {
        stroke-linecap: round;
      }
    </style>
  </defs>
  <g id="_моник_3" data-name="моник 3">
    <g id="_нога" data-name="нога">
      <line class="cls-2" x1="171.84" y1="171.26" x2="262.82" y2="171.26"/>
      <line class="cls-1" x1="190.52" y1="143.26" x2="190.52" y2="168.15"/>
      <line class="cls-1" x1="243.85" y1="143.26" x2="243.85" y2="168.15"/>
    </g>
    <g id="_моник" data-name="моник">
      <rect class="cls-1" x="124" y="4" width="186.67" height="139.26" rx="10.81" ry="10.81"/>
      <line class="cls-1" x1="124" y1="119.7" x2="310.67" y2="119.7"/>
      <path fill="rgba(240, 240, 240, 1)" d="M217.33,128.04c-1.9,0-3.44,1.54-3.44,3.44s1.54,3.44,3.44,3.44,3.44-1.54,3.44-3.44-1.54-3.44-3.44-3.44h0Z"/>
    </g>
  </g>
  <g>
    <g id="_моник_2" data-name="моник 2">
      <g id="_нога-2" data-name="нога">
        <line class="cls-2" x1="51.84" y1="486.59" x2="142.82" y2="486.59"/>
        <line class="cls-1" x1="70.52" y1="458.59" x2="70.52" y2="483.48"/>
        <line class="cls-1" x1="123.85" y1="458.59" x2="123.85" y2="483.48"/>
      </g>
      <g id="_моник-2" data-name="моник">
        <rect class="cls-1" x="4" y="319.33" width="186.67" height="139.26" rx="10.81" ry="10.81"/>
        <line class="cls-1" x1="4" y1="435.04" x2="190.67" y2="435.04"/>
        <path fill="rgba(240, 240, 240, 1)" d="M97.33,443.37c-1.9,0-3.44,1.54-3.44,3.44s1.54,3.44,3.44,3.44,3.44-1.54,3.44-3.44-1.54-3.44-3.44-3.44h0Z"/>
      </g>
    </g>
    <g id="_моник_1" data-name="моник 1">
      <g id="_нога-3" data-name="нога">
        <line class="cls-2" x1="291.84" y1="486.59" x2="382.82" y2="486.59"/>
        <line class="cls-1" x1="310.52" y1="458.59" x2="310.52" y2="483.48"/>
        <line class="cls-1" x1="363.85" y1="458.59" x2="363.85" y2="483.48"/>
      </g>
      <g id="_моник-3" data-name="моник">
        <rect class="cls-1" x="244" y="319.33" width="186.67" height="139.26" rx="10.81" ry="10.81"/>
        <line class="cls-1" x1="244" y1="435.04" x2="430.67" y2="435.04"/>
        <path fill="rgba(240, 240, 240, 1)" d="M337.33,443.37c-1.9,0-3.44,1.54-3.44,3.44s1.54,3.44,3.44,3.44,3.44-1.54,3.44-3.44-1.54-3.44-3.44-3.44h0Z"/>
      </g>
    </g>
  </g>
  <g id="_связь" data-name="связь">
    <path class="cls-2" d="M232.02,245.14c0,8.18-6.64,14.81-14.82,14.81s-14.81-6.63-14.81-14.81,6.63-14.82,14.81-14.82,14.82,6.63,14.82,14.82Z"/>
    <line class="cls-2" x1="217.2" y1="187.5" x2="217.2" y2="226.69"/>
    <path class="cls-2" d="M98,303.1v-47.15c0-5.97,4.88-10.81,10.91-10.81h93.48"/>
    <path class="cls-2" d="M232.02,245.14h93.73c6.03,0,10.91,4.84,10.91,10.81v47.15"/>
  </g>
</svg>