<?xml version="1.0" encoding="UTF-8"?>
<svg id="_Слой_1" data-name="Слой 1" xmlns="http://www.w3.org/2000/svg" viewBox="0 0 443.27 443.27">
  <defs>
    <style>
      .cls-1 {
        stroke-miterlimit: 10;
      }

      .cls-1, .cls-2 {
        fill: none;
        stroke: #000;
        stroke-linecap: round;
        stroke-width: 8px;
      }

      .cls-2 {
        stroke-linejoin: round;
      }
    </style>
  </defs>
  <path class="cls-1" d="M98.49,331.24c-21.48-24.09-36.12-54.72-40.42-89.17-11.28-90.34,52.8-172.71,143.14-184,90.34-11.28,172.71,52.8,184,143.14,11.28,90.34-52.8,172.71-143.14,184-32.62,4.07-64.2-1.68-91.77-14.94"/>
  <circle class="cls-2" cx="123.98" cy="352.61" r="3.25"/>
  <path class="cls-2" d="M417.41,93.69l-4.89,23.31C375.52,49.65,303.91,4,221.64,4,101.44,4,4,101.44,4,221.64s97.44,217.64,217.64,217.64,217.64-97.44,217.64-217.64"/>
  <line class="cls-1" x1="389.64" y1="109.82" x2="412.37" y2="116.94"/>
  <polygon class="cls-2" points="240.28 99.97 147.19 242.63 214.94 242.63 193.74 343.97 288.75 199.66 212.74 199.66 240.28 99.97"/>
</svg>