<?xml version="1.0" encoding="UTF-8"?>
<svg id="_Слой_1" data-name="Слой 1" xmlns="http://www.w3.org/2000/svg" viewBox="0 0 491.55 491">
  <defs>
    <style>
      .cls-1 {
        fill: none;
        stroke: #000;
        stroke-linecap: round;
        stroke-miterlimit: 10;
        stroke-width: 8px;
      }
    </style>
  </defs>
  <path class="cls-1" d="M453.22,262.92l-.48,203.86c-.03,11.2-9.13,20.25-20.32,20.22l-203.86-.48,.2-83.63,22.29,.05c6.68,5.98,15.51,9.62,25.17,9.64,21,.05,38.06-16.94,38.11-37.92,.05-21-16.93-38.06-37.93-38.11-9.65-.02-18.49,3.57-25.21,9.51l-22.3-.05,.2-83.62,83.62,.2,.05-22.3c-3.1-3.5-5.56-7.58-7.19-12.05l40.99,.1,.05-22.3c-5.94-6.72-9.53-15.56-9.5-25.21,0-1.17,.06-2.33,.17-3.47,1.34-.14,2.7-.21,4.08-.21,20.98,.05,37.97,17.11,37.92,38.1-.02,9.67-3.65,18.5-9.64,25.18l-.05,22.29,83.63,.2Z"/>
  <path class="cls-1" d="M24.23,486.03l203.86,.48,.2-83.63,22.29,.05c6.69,5.98,15.51,9.62,25.18,9.64,21,.05,38.05-16.94,38.1-37.92,.05-21-16.93-38.05-37.92-38.1-9.66-.02-18.5,3.57-25.21,9.51l-22.3-.05,.2-83.62-83.62-.2-.05,22.3c5.94,6.72,9.53,15.56,9.51,25.21-.05,21-17.11,37.97-38.1,37.92-20.98-.05-37.97-17.11-37.92-38.1,.02-9.67,3.65-18.49,9.64-25.18l.05-22.29-83.63-.2-.48,203.86c-.03,11.2,9.03,20.29,20.23,20.32Z"/>
  <path class="cls-1" d="M143.36,150.62c-.05,20.99,16.93,38.05,37.93,38.1,9.65,.02,18.49-3.57,25.21-9.51l22.3,.05-.2,83.62-83.62-.19-.05,22.3c5.94,6.71,9.53,15.55,9.5,25.21-.05,20.99-17.1,37.97-38.1,37.92-20.98-.05-37.97-17.11-37.92-38.1,.02-9.67,3.65-18.49,9.64-25.18l.05-22.29-83.63-.2,.48-203.86c.03-11.19,9.13-20.25,20.32-20.22l203.86,.48-.1,41.6c-4.12-1.55-8.58-2.39-13.23-2.4-19.98-.05-36.39,15.34-37.97,34.91-19.3,1.78-34.42,18-34.47,37.76Z"/>
  <path id="_пазл_верх" data-name="пазл верх" class="cls-1" d="M487.55,24.82l-.48,203.85-83.63-.19,.05-22.29c5.99-6.69,9.62-15.51,9.64-25.18,.05-21-16.94-38.05-37.92-38.1-19.83-.05-36.14,15.08-37.93,34.45-.11,1.14-.17,2.3-.17,3.47-.03,9.65,3.56,18.49,9.5,25.21l-.05,22.3-40.99-.1-42.63-.1,.2-83.62-22.3-.05c-6.72,5.94-15.56,9.53-25.22,9.51-20.99-.05-37.97-17.11-37.92-38.11,0-1.01,.04-2.02,.13-3.01,1.58-19.57,17.99-34.96,37.97-34.91,4.65,.01,9.11,.85,13.23,2.4,4.44,1.67,8.48,4.14,11.95,7.24l22.29,.05,.2-83.63,203.86,.48c11.2,.03,20.25,9.13,20.22,20.33Z"/>
</svg>