<?xml version="1.0" encoding="UTF-8"?>
<svg id="_Слой_1" data-name="Слой 1" xmlns="http://www.w3.org/2000/svg" viewBox="0 0 486.22 412.45">
  <defs>
    <style>
      .cls-1 {
        fill: none;
        stroke: #000;
        stroke-linecap: round;
        stroke-linejoin: round;
        stroke-width: 8px;
      }
    </style>
  </defs>
  <polyline class="cls-1" points="241.22 236.81 163.41 282.22 79.85 233.76 4 189.78 79.85 145.37 83.72 143.11"/>
  <polyline class="cls-1" points="242.49 50.16 321.33 4 482.22 96.15 402.59 142.63 401.76 143.11"/>
  <line class="cls-1" x1="241.22" y1="50.9" x2="242.49" y2="50.16"/>
  <polyline class="cls-1" points="83.72 143.11 79.85 140.85 4 96.44 163.41 4 242.49 50.16 241.22 50.9"/>
  <polyline class="cls-1" points="401.76 143.11 402.59 143.59 482.22 190.07 402.59 235.68 321.33 282.22 242.49 236.06 386.1 152.25"/>
  <line class="cls-1" x1="241.22" y1="50.9" x2="242.49" y2="50.16"/>
  <polygon class="cls-1" points="79.85 140.85 83.72 143.11 79.85 145.37 79.85 140.85"/>
  <line class="cls-1" x1="102.66" y1="132.02" x2="241.22" y2="50.9"/>
  <line class="cls-1" x1="223.71" y1="225.07" x2="83.72" y2="143.11"/>
  <polygon class="cls-1" points="163.41 282.22 241.22 236.81 241.22 408.45 79.85 316.59 79.85 233.76 163.41 282.22"/>
  <polyline class="cls-1" points="321.33 282.22 402.59 235.68 402.59 316.59 241.22 408.45"/>
  <line class="cls-1" x1="259.84" y1="60.28" x2="401.76" y2="143.11"/>
  <line class="cls-1" x1="241.22" y1="217.45" x2="241.22" y2="50.9"/>
  <polygon class="cls-1" points="402.59 143.59 401.76 143.11 402.59 142.63 402.59 143.59"/>
</svg>