<?xml version="1.0" encoding="UTF-8"?>
<svg id="_Слой_1" data-name="Слой 1" xmlns="http://www.w3.org/2000/svg" viewBox="0 0 430.52 483.83">
  <defs>
    <style>
      .cls-1, .cls-2 {
        fill: none;
        stroke: #000;
        stroke-miterlimit: 10;
        stroke-width: 8px;
      }

      .cls-2 {
        stroke-linecap: round;
      }
    </style>
  </defs>
  <g id="_круги" data-name="круги">
    <circle class="cls-1" cx="215.26" cy="268.57" r="211.26"/>
    <circle class="cls-1" cx="215.26" cy="268.57" r="176.59"/>
  </g>
  <g id="_верхушка" data-name="верхушка">
    <line class="cls-1" x1="202.22" y1="56.44" x2="202.22" y2="23.56"/>
    <line class="cls-1" x1="228.3" y1="23.56" x2="228.3" y2="56.44"/>
    <path class="cls-1" d="M253.78,13.78c0,5.38-4.5,9.78-10,9.78h-57.04c-5.5,0-10-4.4-10-9.78s4.5-9.78,10-9.78h57.04c5.5,0,10,4.4,10,9.78Z"/>
  </g>
  <g id="_палки" data-name="палки">
    <line class="cls-2" x1="78.21" y1="268.57" x2="38.67" y2="268.57"/>
    <line class="cls-2" x1="78.21" y1="189.28" x2="63.46" y2="179.75"/>
    <line class="cls-2" x1="367.06" y1="357.19" x2="352.31" y2="347.66"/>
    <line class="cls-2" x1="351.99" y1="189.48" x2="367.39" y2="181.04"/>
    <line class="cls-2" x1="292.99" y1="132.27" x2="301.77" y2="117.06"/>
    <line class="cls-2" x1="135.99" y1="132.27" x2="127.21" y2="117.06"/>
    <line class="cls-2" x1="135.99" y1="405.62" x2="127.21" y2="420.83"/>
    <line class="cls-2" x1="292.99" y1="405.62" x2="301.77" y2="420.83"/>
    <line class="cls-2" x1="63.13" y1="356.3" x2="78.53" y2="347.86"/>
    <line class="cls-2" x1="391.85" y1="268.57" x2="352.31" y2="268.57"/>
    <line class="cls-2" x1="215.26" y1="131.52" x2="215.26" y2="91.98"/>
    <line class="cls-2" x1="215.26" y1="445.16" x2="215.26" y2="405.62"/>
  </g>
  <g id="_Стрелка" data-name="Стрелка">
    <circle class="cls-1" cx="214.44" cy="268.57" r="18"/>
    <path class="cls-2" d="M198.31,276.57h-22.79c-5.5,0-10-3.6-10-8s4.5-8,10-8h22.79"/>
    <path class="cls-2" d="M230.56,260.57h91.48c5.5,0,10,3.6,10,8s-4.5,8-10,8h-91.48"/>
  </g>
</svg>