<?xml version="1.0" encoding="UTF-8"?>
<svg id="_Слой_1" data-name="Слой 1" xmlns="http://www.w3.org/2000/svg" viewBox="0 0 409.78 404.92">
  <defs>
    <style>
      .cls-1, .cls-2 {
        stroke-miterlimit: 10;
      }

      .cls-1, .cls-2, .cls-3 {
        fill: none;
        stroke: #000;
        stroke-width: 8px;
      }

      .cls-2, .cls-3 {
        stroke-linecap: round;
      }

      .cls-3 {
        stroke-linejoin: round;
      }
    </style>
  </defs>
  <g id="_верхушки" data-name="верхушки">
    <g>
      <rect class="cls-1" x="57.78" y="4" width="40" height="86.22" rx="20" ry="20"/>
      <g>
        <rect class="cls-1" x="184.89" y="4" width="40" height="86.22" rx="20" ry="20"/>
        <rect class="cls-1" x="312" y="4" width="40" height="86.22" rx="20" ry="20"/>
      </g>
    </g>
    <g>
      <g>
        <rect class="cls-1" x="57.78" y="4" width="40" height="86.22" rx="20" ry="20"/>
        <rect class="cls-1" x="57.78" y="4" width="40" height="86.22" rx="20" ry="20"/>
      </g>
      <g>
        <g>
          <rect class="cls-1" x="184.89" y="4" width="40" height="86.22" rx="20" ry="20"/>
          <rect class="cls-1" x="184.89" y="4" width="40" height="86.22" rx="20" ry="20"/>
        </g>
        <g>
          <rect class="cls-1" x="312" y="4" width="40" height="86.22" rx="20" ry="20"/>
          <rect class="cls-1" x="312" y="4" width="40" height="86.22" rx="20" ry="20"/>
        </g>
      </g>
    </g>
  </g>
  <g id="_календарь" data-name="календарь">
    <g>
      <path class="cls-1" d="M352,36.42h43.78c5.5,0,10,4.5,10,10V390.92c0,5.5-4.5,10-10,10H14c-5.5,0-10-4.5-10-10V46.42c0-5.5,4.5-10,10-10H57.78"/>
      <line class="cls-2" x1="6.44" y1="125.78" x2="334.44" y2="125.78"/>
      <line class="cls-2" x1="74" y1="357.33" x2="402" y2="357.33"/>
      <line class="cls-1" x1="98.44" y1="36.42" x2="184.89" y2="36.42"/>
      <line class="cls-1" x1="224.89" y1="36.42" x2="312" y2="36.42"/>
    </g>
    <g>
      <g>
        <path class="cls-2" d="M352,36.42h43.78c5.5,0,10,4.5,10,10V390.92c0,5.5-4.5,10-10,10H14c-5.5,0-10-4.5-10-10V46.42c0-5.5,4.5-10,10-10H57.78"/>
        <path class="cls-2" d="M352,36.42h43.78c5.5,0,10,4.5,10,10V390.92c0,5.5-4.5,10-10,10H14c-5.5,0-10-4.5-10-10V46.42c0-5.5,4.5-10,10-10H57.78"/>
      </g>
      <line class="cls-2" x1="6.44" y1="125.78" x2="334.44" y2="125.78"/>
      <line class="cls-2" x1="74" y1="357.33" x2="402" y2="357.33"/>
      <line class="cls-2" x1="98.44" y1="36.42" x2="184.89" y2="36.42"/>
      <line class="cls-2" x1="224.89" y1="36.42" x2="312" y2="36.42"/>
    </g>
  </g>
  <polyline class="cls-3" points="72.89 194.1 133.81 194.1 133.81 289.01 72.89 289.01"/>
  <polyline class="cls-3" points="336.89 194.1 275.97 194.1 275.97 241.56 336.89 241.56 336.89 289.01 275.97 289.01"/>
  <line class="cls-3" x1="133.81" y1="241.56" x2="72.89" y2="241.56"/>
  <polyline class="cls-3" points="174.43 241.56 235.35 241.56 235.35 289.01 174.43 289.01 174.43 194.1 235.35 194.1"/>
</svg>